<?xml version="1.0" encoding="utf-8"?>
<!-- Generator: Adobe Illustrator 22.1.0, SVG Export Plug-In . SVG Version: 6.00 Build 0)  -->
<svg version="1.1" id="Layer_1" xmlns="http://www.w3.org/2000/svg" xmlns:xlink="http://www.w3.org/1999/xlink" x="0px" y="0px"
	 viewBox="0 0 1000 278.4" style="enable-background:new 0 0 1000 278.4;" xml:space="preserve">
<style type="text/css">
	.st0{fill:#18273D;}
	.st1{fill:#8158C1;}
	.st2{fill:#FFFFFF;}
</style>
<g>
	<path class="st2" d="M388,117.2V3.1h49.2c14.7,0,24.8,3,30.1,9c5.3,6,8,14.1,8,24.3s-1.5,17.7-4.4,22.3c-3,4.7-7.1,8-12.3,10.1
		l22,48.4h-23.8l-20-45.1H411v45.1H388z M411,55.7h28.2c5.4,0,9.1-1.5,11.2-4.6c2-3.1,3.1-7.7,3.1-14c0-11.9-4.4-17.8-13.3-17.8H411
		V55.7z"/>
	<path class="st2" d="M522.3,117.6c-4.1-0.9-7.8-2.3-11.1-4.4c-6.9-4.2-10.4-11.5-10.4-22V58.8c0-8.3,3.2-14.8,9.5-19.5
		c6.3-4.6,15-7,25.9-7c23.5,0,35.3,9.1,35.3,27.2v20.1h-49.7v13.5c0,4.6,1.1,7.6,3.4,9c2.3,1.4,6.1,2.1,11.5,2.1s8.6-0.3,9.6-0.8
		c2.3-1.3,3.8-2.8,4.5-4.7c0.7-1.8,1.1-4.2,1.2-7.2h19.5c-0.3,12.8-4.8,20.9-13.5,24.3c-5.1,2-11.3,2.9-18.6,3
		C532.1,119,526.4,118.5,522.3,117.6z M521.8,66.9h29.8v-9.7c0-5-2-8.1-6-9.2c-2.1-0.6-5.3-0.9-9.6-0.9c-4.3,0-7.7,0.8-10.3,2.2
		c-2.6,1.4-3.9,4.2-3.9,8.3V66.9z"/>
	<path class="st2" d="M625.8,119c-11,0-19.3-2.3-24.8-7c-5.5-4.7-8.2-11.3-8.2-19.8V59c0-8.1,2.8-14.5,8.5-19.4
		c5.7-4.8,14.3-7.2,25.9-7.2c4.9,0,10.1,1,15.5,2.9V0h21v117.2h-14.2l-2.2-4.9C640.9,116.8,633.8,119,625.8,119z M617.4,101.4
		c2.4,1.9,6.3,2.8,11.7,2.8c5.4,0,9.9-1.1,13.6-3.3V49.9c-4-1.9-8.6-2.9-13.6-2.9s-8.9,0.9-11.4,2.7c-2.6,1.8-3.9,4.7-3.9,8.8v33.9
		C613.8,96.6,615,99.6,617.4,101.4z"/>
	<path class="st2" d="M742.9,108.1c-1.6,3.4-4.8,6.1-9.6,8c-4.7,1.9-10,2.9-15.8,2.9c-8.3,0-14.8-2.3-19.6-6.9
		c-4.8-4.6-7.2-10.4-7.2-17.4V34.2h21v57.1c0,4,1.4,6.9,4.2,8.9c2.8,2,6.2,2.9,10.3,2.9s7.8-1.1,11.1-3.3c3.3-2.2,4.9-5.4,4.9-9.7
		v-56h21v83h-19.8L742.9,108.1z"/>
	<path class="st2" d="M781.3,117.2l28.6-41.7l-28.5-41.3h22l17.2,26l17.2-26h21.4l-27.8,41.6l28,41.4h-20.9L821,91.1l-17.3,26.1
		H781.3z"/>
	<g>
		<path class="st2" d="M388,268.2V154.1h49.2c14.7,0,24.8,3,30.1,9c5.3,6,8,14.1,8,24.3s-1.5,17.7-4.4,22.3c-3,4.7-7.1,8-12.3,10.1
			l22,48.4h-23.8l-20-45.1H411v45.1H388z M411,206.7h28.2c5.4,0,9.1-1.5,11.2-4.6c2-3.1,3.1-7.7,3.1-14c0-11.9-4.4-17.8-13.3-17.8
			H411V206.7z"/>
		<path class="st2" d="M522.3,268.6c-4.1-0.9-7.8-2.3-11.1-4.4c-6.9-4.2-10.4-11.5-10.4-22v-32.4c0-8.3,3.2-14.8,9.5-19.5
			c6.3-4.6,15-7,25.9-7c23.5,0,35.3,9.1,35.3,27.2v20.1h-49.7v13.5c0,4.6,1.1,7.6,3.4,9c2.3,1.4,6.1,2.1,11.5,2.1s8.6-0.3,9.6-0.8
			c2.3-1.3,3.8-2.8,4.5-4.7c0.7-1.8,1.1-4.2,1.2-7.2h19.5c-0.3,12.8-4.8,20.9-13.5,24.3c-5.1,2-11.3,2.9-18.6,3
			C532.1,269.9,526.4,269.5,522.3,268.6z M521.8,217.9h29.8v-9.7c0-5-2-8.1-6-9.2c-2.1-0.6-5.3-0.9-9.6-0.9c-4.3,0-7.7,0.8-10.3,2.2
			c-2.6,1.4-3.9,4.2-3.9,8.3V217.9z"/>
		<path class="st2" d="M628.3,270c-16.1,0-26.5-3.6-31.2-10.8c-2.9-4.4-4.4-9.8-4.4-16.2v-33.2c0-8.3,3-14.8,9-19.4
			c6-4.6,14.6-6.9,25.7-6.9s19.5,2.2,25.2,6.6c5.6,4.4,8.5,12.5,8.5,24.2l-19.8,1.5c0-7.5-0.9-12.3-2.7-14.5c-1.1-1.3-2.4-2.2-4-2.6
			c-1.5-0.4-4.2-0.5-8-0.5c-8.6,0-12.8,3.9-12.8,11.7v33.5c0,4.3,1.1,7.4,3.4,9.2c2.2,1.8,5.6,2.7,10,2.7c4.4,0,7.5-0.4,9.3-1.2
			c1.8-0.8,3.1-2.3,3.9-4.6c0.8-2.2,1.2-5.8,1.2-10.6h19.6c-0.1,6.1-0.7,11-1.7,14.8c-1,3.7-2.8,6.9-5.4,9.4
			C649.4,267.6,640.8,269.9,628.3,270z"/>
		<path class="st2" d="M717.5,270c-24,0-36-9-36-26.9v-32.7c0-8.5,3.2-15.1,9.5-19.9c6.3-4.7,15.2-7.1,26.5-7.1
			c11.4,0,20.2,2.4,26.6,7.1c6.3,4.8,9.5,11.4,9.5,19.8v32.7c0,13.3-6.3,21.7-19,25C729.8,269.3,724.1,270,717.5,270z M717.5,255.3
			c10,0,15-3.8,15-11.4v-34.6c0-4.1-1.3-7-3.8-8.7c-2.5-1.8-6.3-2.6-11.2-2.6c-10,0-15,3.8-15,11.4V244c0,4.1,1.2,7,3.7,8.7
			C708.8,254.5,712.5,255.3,717.5,255.3z"/>
		<path class="st2" d="M778.7,268.2v-83h21v9.9c1.2-2.4,3.8-4.5,7.7-6.3c6.8-3.2,13.3-4.9,19.6-4.9c0.7,0,1.4,0,2,0.1l-0.5,17.9
			c-9.2,0.5-16.9,2.2-23,5.2c-3.4,1.7-5.4,3.5-5.9,5.6v55.7H778.7z"/>
		<path class="st2" d="M876.3,270c-11,0-19.3-2.3-24.8-7c-5.5-4.7-8.2-11.3-8.2-19.8V210c0-8.1,2.8-14.5,8.5-19.4
			c5.7-4.8,14.3-7.2,25.9-7.2c4.9,0,10.1,1,15.5,2.9V151h21v117.2H900l-2.2-4.9C891.5,267.7,884.3,270,876.3,270z M868,252.4
			c2.4,1.9,6.3,2.8,11.7,2.8c5.4,0,9.9-1.1,13.6-3.3v-50.9c-4-1.9-8.6-2.9-13.6-2.9s-8.9,0.9-11.4,2.7c-2.6,1.8-3.9,4.7-3.9,8.8
			v33.9C864.3,247.6,865.5,250.6,868,252.4z"/>
		<path class="st2" d="M970.2,270c-13.1,0-23.9-2.2-32.4-6.5l4.3-14.3c9.7,4.1,18.8,6.2,27.4,6.2c6.5,0,10.3-2.9,11.1-8.7
			c0.1-0.7,0.2-1.4,0.2-2c0-4.2-2.3-7-7-8.5l-18.2-5.7c-6.2-2-10.7-4.9-13.3-8.8c-2.6-3.9-3.9-8.7-3.9-14.3c0-0.2,0-0.4,0-0.6
			c0.1-15.5,10.7-23.3,31.8-23.3c10.4,0,19.7,2.3,28,7l-4.9,13.1c-2.6-1.4-6.2-2.6-10.7-3.7c-4.5-1.1-8.8-1.7-12.7-1.7
			c-4,0-6.9,0.7-8.7,2.1c-1.8,1.4-2.7,3.8-2.7,7.3c0,3.4,1.9,5.7,5.7,6.9l17.2,5.4c6.9,2.2,11.7,5.2,14.5,9.1
			c2.8,3.9,4.2,9.4,4.2,16.4c0,7-2.6,12.9-7.7,17.6C987.1,267.6,979.8,270,970.2,270z"/>
	</g>
</g>
<path class="st1" d="M41.4,20.4c-17.9-8-37.9,4.8-38.5,24.2H2.8v0.9c0,0,0,0,0,0v44.4c0,0,0,0,0,0v0.9l0,0
	c0.3,22.9,12.7,43.8,32.3,55.2L0,217.7l29.7,13.2l35-71.3l40.4,18V222v32.3v10l31.7,14.1v-24.1v-18.2v-44.4v-42.3V105V62.8
	L41.4,20.4z M63.7,116.9l-21.9-9.7c-8-3.5-13.1-11.4-13.3-20.1l0,0v-0.3V71.5c0,0,0,0,0,0v-0.3h0c0.2-6.7,7.1-11.1,13.3-8.3l63.2,28
	l0.1,44.5L63.7,116.9z"/>
<path class="st1" d="M168.5,191.7l134-59.6V89.9l-134,59.6V191.7z M222,142.7l27-12v8.2l-27,12V142.7z"/>
<path class="st1" d="M168.5,278.4l134-59.6v-42.3l-134,59.6V278.4z M222,229.4l27-12v8.2l-27,12V229.4z"/>
<path class="st1" d="M168.5,62.8V105l134-59.6V3.2L168.5,62.8z M249.1,52.2l-27,12V56l27-12V52.2z"/>
</svg>
